<mxfile host="app.diagrams.net" modified="2023-03-21T09:27:27.364Z" agent="5.0 (Windows NT 10.0; Win64; x64) AppleWebKit/537.36 (KHTML, like Gecko) Chrome/111.0.0.0 Safari/537.36" etag="hZeQJJysqzkBchZYVLLV" version="21.0.8" type="github">
  <diagram id="C5RBs43oDa-KdzZeNtuy" name="Page-1">
    <mxGraphModel dx="2868" dy="1530" grid="1" gridSize="10" guides="1" tooltips="1" connect="1" arrows="1" fold="1" page="1" pageScale="1" pageWidth="827" pageHeight="1169" math="0" shadow="0">
      <root>
        <mxCell id="WIyWlLk6GJQsqaUBKTNV-0" />
        <mxCell id="WIyWlLk6GJQsqaUBKTNV-1" parent="WIyWlLk6GJQsqaUBKTNV-0" />
        <mxCell id="wJaKwitPQJHhGoxhKrAu-2" value="" style="edgeStyle=orthogonalEdgeStyle;rounded=0;orthogonalLoop=1;jettySize=auto;html=1;" parent="WIyWlLk6GJQsqaUBKTNV-1" source="wJaKwitPQJHhGoxhKrAu-0" target="wJaKwitPQJHhGoxhKrAu-1" edge="1">
          <mxGeometry relative="1" as="geometry" />
        </mxCell>
        <mxCell id="wJaKwitPQJHhGoxhKrAu-12" value="" style="edgeStyle=orthogonalEdgeStyle;rounded=0;orthogonalLoop=1;jettySize=auto;html=1;" parent="WIyWlLk6GJQsqaUBKTNV-1" source="wJaKwitPQJHhGoxhKrAu-0" target="wJaKwitPQJHhGoxhKrAu-11" edge="1">
          <mxGeometry relative="1" as="geometry" />
        </mxCell>
        <mxCell id="wJaKwitPQJHhGoxhKrAu-29" value="" style="edgeStyle=orthogonalEdgeStyle;rounded=0;orthogonalLoop=1;jettySize=auto;html=1;" parent="WIyWlLk6GJQsqaUBKTNV-1" source="wJaKwitPQJHhGoxhKrAu-0" target="wJaKwitPQJHhGoxhKrAu-28" edge="1">
          <mxGeometry relative="1" as="geometry">
            <Array as="points">
              <mxPoint x="354" y="230" />
              <mxPoint x="910" y="230" />
            </Array>
          </mxGeometry>
        </mxCell>
        <mxCell id="wJaKwitPQJHhGoxhKrAu-0" value="注册用户" style="rounded=1;whiteSpace=wrap;html=1;fillColor=#0AEFFF;" parent="WIyWlLk6GJQsqaUBKTNV-1" vertex="1">
          <mxGeometry x="294" y="150" width="120" height="60" as="geometry" />
        </mxCell>
        <mxCell id="mll0LeE3y_oYJCZJaChD-9" style="edgeStyle=orthogonalEdgeStyle;rounded=0;orthogonalLoop=1;jettySize=auto;html=1;entryX=0.5;entryY=0;entryDx=0;entryDy=0;" edge="1" parent="WIyWlLk6GJQsqaUBKTNV-1" source="wJaKwitPQJHhGoxhKrAu-1" target="mll0LeE3y_oYJCZJaChD-0">
          <mxGeometry relative="1" as="geometry" />
        </mxCell>
        <mxCell id="wJaKwitPQJHhGoxhKrAu-1" value="用户领养" style="rounded=1;whiteSpace=wrap;html=1;" parent="WIyWlLk6GJQsqaUBKTNV-1" vertex="1">
          <mxGeometry x="60" y="255" width="110" height="60" as="geometry" />
        </mxCell>
        <mxCell id="mll0LeE3y_oYJCZJaChD-8" style="edgeStyle=orthogonalEdgeStyle;rounded=0;orthogonalLoop=1;jettySize=auto;html=1;" edge="1" parent="WIyWlLk6GJQsqaUBKTNV-1" source="wJaKwitPQJHhGoxhKrAu-5" target="wJaKwitPQJHhGoxhKrAu-9">
          <mxGeometry relative="1" as="geometry" />
        </mxCell>
        <mxCell id="wJaKwitPQJHhGoxhKrAu-5" value="拼团" style="rounded=1;whiteSpace=wrap;html=1;" parent="WIyWlLk6GJQsqaUBKTNV-1" vertex="1">
          <mxGeometry x="200" y="540" width="120" height="65" as="geometry" />
        </mxCell>
        <mxCell id="wJaKwitPQJHhGoxhKrAu-130" style="edgeStyle=orthogonalEdgeStyle;rounded=0;orthogonalLoop=1;jettySize=auto;html=1;entryX=0;entryY=0.75;entryDx=0;entryDy=0;" parent="WIyWlLk6GJQsqaUBKTNV-1" source="wJaKwitPQJHhGoxhKrAu-7" target="wJaKwitPQJHhGoxhKrAu-129" edge="1">
          <mxGeometry relative="1" as="geometry">
            <Array as="points">
              <mxPoint x="115" y="1125" />
            </Array>
          </mxGeometry>
        </mxCell>
        <mxCell id="wJaKwitPQJHhGoxhKrAu-7" value="&lt;p class=&quot;MsoNormal&quot;&gt;&lt;font face=&quot;宋体&quot;&gt;个人领养&lt;/font&gt;&lt;font face=&quot;Calibri&quot;&gt;1&lt;/font&gt;&lt;font face=&quot;宋体&quot;&gt;头&lt;/font&gt;&lt;font face=&quot;Calibri&quot;&gt;16500&lt;/font&gt;&lt;font face=&quot;宋体&quot;&gt;元&lt;/font&gt;&lt;font face=&quot;Calibri&quot;&gt;/&lt;/font&gt;&lt;font face=&quot;宋体&quot;&gt;头（支付时需要&lt;/font&gt;&lt;font face=&quot;Calibri&quot;&gt;15000&lt;/font&gt;&lt;font face=&quot;宋体&quot;&gt;元现金&lt;/font&gt;&lt;font face=&quot;Calibri&quot;&gt;+&lt;/font&gt;&lt;font face=&quot;宋体&quot;&gt;价值&lt;/font&gt;&lt;font face=&quot;Calibri&quot;&gt;1500&lt;/font&gt;&lt;font face=&quot;宋体&quot;&gt;元牛宝宝）&lt;/font&gt;&lt;/p&gt;" style="whiteSpace=wrap;html=1;rounded=1;" parent="WIyWlLk6GJQsqaUBKTNV-1" vertex="1">
          <mxGeometry x="55" y="660" width="120" height="60" as="geometry" />
        </mxCell>
        <mxCell id="wJaKwitPQJHhGoxhKrAu-14" value="" style="edgeStyle=orthogonalEdgeStyle;rounded=0;orthogonalLoop=1;jettySize=auto;html=1;" parent="WIyWlLk6GJQsqaUBKTNV-1" source="wJaKwitPQJHhGoxhKrAu-11" target="wJaKwitPQJHhGoxhKrAu-13" edge="1">
          <mxGeometry relative="1" as="geometry" />
        </mxCell>
        <mxCell id="wJaKwitPQJHhGoxhKrAu-16" value="" style="edgeStyle=orthogonalEdgeStyle;rounded=0;orthogonalLoop=1;jettySize=auto;html=1;" parent="WIyWlLk6GJQsqaUBKTNV-1" source="wJaKwitPQJHhGoxhKrAu-11" target="wJaKwitPQJHhGoxhKrAu-15" edge="1">
          <mxGeometry relative="1" as="geometry">
            <Array as="points">
              <mxPoint x="471" y="350" />
              <mxPoint x="590" y="350" />
            </Array>
          </mxGeometry>
        </mxCell>
        <mxCell id="wJaKwitPQJHhGoxhKrAu-110" style="edgeStyle=orthogonalEdgeStyle;rounded=0;orthogonalLoop=1;jettySize=auto;html=1;" parent="WIyWlLk6GJQsqaUBKTNV-1" source="wJaKwitPQJHhGoxhKrAu-11" target="wJaKwitPQJHhGoxhKrAu-17" edge="1">
          <mxGeometry relative="1" as="geometry">
            <Array as="points">
              <mxPoint x="470" y="350" />
              <mxPoint x="730" y="350" />
            </Array>
          </mxGeometry>
        </mxCell>
        <mxCell id="wJaKwitPQJHhGoxhKrAu-11" value="&lt;b&gt;&lt;font style=&quot;font-size: 9px;&quot;&gt;用户收益&lt;br&gt;持有收益&lt;br&gt;&lt;/font&gt;&lt;/b&gt;&lt;span style=&quot;font-family: 宋体; background-color: initial;&quot;&gt;领养收益&lt;/span&gt;&lt;b&gt;&lt;font style=&quot;font-size: 9px;&quot;&gt;&lt;br&gt;&lt;/font&gt;&lt;/b&gt;" style="rounded=1;whiteSpace=wrap;html=1;strokeColor=#FF3333;fillColor=#FF6666;" parent="WIyWlLk6GJQsqaUBKTNV-1" vertex="1">
          <mxGeometry x="412" y="270" width="118" height="45" as="geometry" />
        </mxCell>
        <mxCell id="wJaKwitPQJHhGoxhKrAu-20" value="" style="edgeStyle=orthogonalEdgeStyle;rounded=0;orthogonalLoop=1;jettySize=auto;html=1;" parent="WIyWlLk6GJQsqaUBKTNV-1" source="wJaKwitPQJHhGoxhKrAu-13" target="wJaKwitPQJHhGoxhKrAu-19" edge="1">
          <mxGeometry relative="1" as="geometry" />
        </mxCell>
        <mxCell id="wJaKwitPQJHhGoxhKrAu-13" value="权益收益" style="rounded=1;whiteSpace=wrap;html=1;" parent="WIyWlLk6GJQsqaUBKTNV-1" vertex="1">
          <mxGeometry x="380" y="410" width="120" height="60" as="geometry" />
        </mxCell>
        <mxCell id="wJaKwitPQJHhGoxhKrAu-22" value="" style="edgeStyle=orthogonalEdgeStyle;rounded=0;orthogonalLoop=1;jettySize=auto;html=1;" parent="WIyWlLk6GJQsqaUBKTNV-1" source="wJaKwitPQJHhGoxhKrAu-15" target="wJaKwitPQJHhGoxhKrAu-21" edge="1">
          <mxGeometry relative="1" as="geometry" />
        </mxCell>
        <mxCell id="wJaKwitPQJHhGoxhKrAu-15" value="&lt;p class=&quot;MsoNormal&quot;&gt;&lt;font face=&quot;宋体&quot;&gt;资本收益&lt;/font&gt;&lt;/p&gt;" style="whiteSpace=wrap;html=1;rounded=1;" parent="WIyWlLk6GJQsqaUBKTNV-1" vertex="1">
          <mxGeometry x="525" y="410" width="120" height="60" as="geometry" />
        </mxCell>
        <mxCell id="wJaKwitPQJHhGoxhKrAu-27" value="" style="edgeStyle=orthogonalEdgeStyle;rounded=0;orthogonalLoop=1;jettySize=auto;html=1;" parent="WIyWlLk6GJQsqaUBKTNV-1" source="wJaKwitPQJHhGoxhKrAu-17" target="wJaKwitPQJHhGoxhKrAu-23" edge="1">
          <mxGeometry relative="1" as="geometry" />
        </mxCell>
        <mxCell id="wJaKwitPQJHhGoxhKrAu-17" value="&lt;p class=&quot;MsoNormal&quot;&gt;&lt;font face=&quot;宋体&quot;&gt;牛积分&lt;/font&gt;&lt;/p&gt;" style="whiteSpace=wrap;html=1;rounded=1;" parent="WIyWlLk6GJQsqaUBKTNV-1" vertex="1">
          <mxGeometry x="670" y="410" width="120" height="60" as="geometry" />
        </mxCell>
        <mxCell id="mll0LeE3y_oYJCZJaChD-15" value="" style="edgeStyle=orthogonalEdgeStyle;rounded=0;orthogonalLoop=1;jettySize=auto;html=1;" edge="1" parent="WIyWlLk6GJQsqaUBKTNV-1" source="wJaKwitPQJHhGoxhKrAu-19" target="mll0LeE3y_oYJCZJaChD-14">
          <mxGeometry relative="1" as="geometry">
            <Array as="points">
              <mxPoint x="410" y="960" />
            </Array>
          </mxGeometry>
        </mxCell>
        <mxCell id="wJaKwitPQJHhGoxhKrAu-19" value="&lt;p class=&quot;MsoNormal&quot;&gt;&lt;font face=&quot;宋体&quot;&gt;赠送&lt;/font&gt;&lt;font face=&quot;Calibri&quot;&gt;1&lt;/font&gt;&lt;font face=&quot;宋体&quot;&gt;万元权益收益（锁仓）每天固定收益&lt;/font&gt;&lt;font face=&quot;Calibri&quot;&gt;0.1%-0.3%&lt;/font&gt;&lt;font face=&quot;宋体&quot;&gt;（参数后台配置）每天固定收益&lt;/font&gt;&lt;font face=&quot;Calibri&quot;&gt;30&lt;/font&gt;&lt;font face=&quot;宋体&quot;&gt;元&lt;/font&gt;&lt;/p&gt;" style="rounded=1;whiteSpace=wrap;html=1;" parent="WIyWlLk6GJQsqaUBKTNV-1" vertex="1">
          <mxGeometry x="380" y="522.5" width="120" height="100" as="geometry" />
        </mxCell>
        <mxCell id="wJaKwitPQJHhGoxhKrAu-133" style="edgeStyle=orthogonalEdgeStyle;rounded=0;orthogonalLoop=1;jettySize=auto;html=1;entryX=0;entryY=0.5;entryDx=0;entryDy=0;" parent="WIyWlLk6GJQsqaUBKTNV-1" source="wJaKwitPQJHhGoxhKrAu-21" target="wJaKwitPQJHhGoxhKrAu-129" edge="1">
          <mxGeometry relative="1" as="geometry">
            <Array as="points">
              <mxPoint x="600" y="1110" />
            </Array>
          </mxGeometry>
        </mxCell>
        <mxCell id="wJaKwitPQJHhGoxhKrAu-21" value="&lt;p class=&quot;MsoNormal&quot;&gt;&lt;font face=&quot;宋体&quot;&gt;赠送&lt;/font&gt;&lt;font face=&quot;Calibri&quot;&gt;1&lt;/font&gt;&lt;font face=&quot;宋体&quot;&gt;万元上市股票（锁仓），每天固定收益&lt;/font&gt;&lt;font face=&quot;Calibri&quot;&gt;0.1%&lt;/font&gt;&lt;font face=&quot;宋体&quot;&gt;（参数后台配置）每天固定收益价值&lt;/font&gt;&lt;font face=&quot;Calibri&quot;&gt;10&lt;/font&gt;&lt;font face=&quot;宋体&quot;&gt;元股票&lt;/font&gt;&lt;/p&gt;" style="whiteSpace=wrap;html=1;rounded=1;" parent="WIyWlLk6GJQsqaUBKTNV-1" vertex="1">
          <mxGeometry x="525" y="522.5" width="120" height="100" as="geometry" />
        </mxCell>
        <mxCell id="mll0LeE3y_oYJCZJaChD-13" style="edgeStyle=orthogonalEdgeStyle;rounded=0;orthogonalLoop=1;jettySize=auto;html=1;entryX=1;entryY=0.5;entryDx=0;entryDy=0;" edge="1" parent="WIyWlLk6GJQsqaUBKTNV-1" source="wJaKwitPQJHhGoxhKrAu-23" target="mll0LeE3y_oYJCZJaChD-0">
          <mxGeometry relative="1" as="geometry">
            <Array as="points">
              <mxPoint x="730" y="810" />
              <mxPoint x="360" y="810" />
              <mxPoint x="360" y="440" />
            </Array>
          </mxGeometry>
        </mxCell>
        <mxCell id="wJaKwitPQJHhGoxhKrAu-23" value="&lt;p style=&quot;margin-left:0.0000pt;mso-para-margin-left:0.0000gd;text-indent:21.0000pt;&lt;br/&gt;mso-char-indent-count:2.0000;text-align:left;mso-list:l0 level1 lfo1;&quot; class=&quot;MsoNormal&quot;&gt;①　&lt;span style=&quot;mso-spacerun:&#39;yes&#39;;font-family:宋体;mso-ascii-font-family:Calibri;&lt;br/&gt;mso-hansi-font-family:Calibri;mso-bidi-font-family:&#39;Times New Roman&#39;;font-size:10.5000pt;&lt;br/&gt;mso-font-kerning:1.0000pt;&quot;&gt;&lt;font face=&quot;宋体&quot;&gt;牛积分：赠送&lt;/font&gt;&lt;font face=&quot;Calibri&quot;&gt;3300&lt;/font&gt;&lt;font face=&quot;宋体&quot;&gt;元贡献值（锁仓），每直接分享&lt;/font&gt;&lt;font face=&quot;Calibri&quot;&gt;1&lt;/font&gt;&lt;font face=&quot;宋体&quot;&gt;单解锁&lt;/font&gt;&lt;font face=&quot;Calibri&quot;&gt;100&lt;/font&gt;&lt;font face=&quot;宋体&quot;&gt;元牛积分产出&lt;/font&gt;&lt;font face=&quot;Calibri&quot;&gt;100&lt;/font&gt;&lt;font face=&quot;宋体&quot;&gt;元牛宝宝（后台设置一个价格&lt;/font&gt;&lt;font face=&quot;Calibri&quot;&gt;,&lt;/font&gt;&lt;font face=&quot;宋体&quot;&gt;按照牛宝宝价格结算数量）&lt;/font&gt;&lt;/span&gt;&lt;span style=&quot;mso-spacerun:&#39;yes&#39;;font-family:Calibri;mso-fareast-font-family:宋体;&lt;br/&gt;mso-bidi-font-family:&#39;Times New Roman&#39;;font-size:10.5000pt;mso-font-kerning:1.0000pt;&quot;&gt;&lt;/span&gt;&lt;/p&gt;" style="whiteSpace=wrap;html=1;rounded=1;" parent="WIyWlLk6GJQsqaUBKTNV-1" vertex="1">
          <mxGeometry x="670" y="517.5" width="120" height="110" as="geometry" />
        </mxCell>
        <mxCell id="wJaKwitPQJHhGoxhKrAu-131" style="edgeStyle=orthogonalEdgeStyle;rounded=0;orthogonalLoop=1;jettySize=auto;html=1;entryX=0;entryY=0.5;entryDx=0;entryDy=0;" parent="WIyWlLk6GJQsqaUBKTNV-1" source="wJaKwitPQJHhGoxhKrAu-9" target="wJaKwitPQJHhGoxhKrAu-129" edge="1">
          <mxGeometry relative="1" as="geometry">
            <Array as="points">
              <mxPoint x="260" y="1110" />
            </Array>
          </mxGeometry>
        </mxCell>
        <mxCell id="wJaKwitPQJHhGoxhKrAu-9" value="&lt;p class=&quot;MsoNormal&quot;&gt;&lt;font face=&quot;宋体&quot;&gt;拼团：&lt;/font&gt;&lt;font face=&quot;Calibri&quot;&gt;5&lt;/font&gt;&lt;font face=&quot;宋体&quot;&gt;人拼单共同领养一头，&lt;/font&gt;&lt;font face=&quot;Calibri&quot;&gt;3300&lt;/font&gt;&lt;font face=&quot;宋体&quot;&gt;元&lt;/font&gt;&lt;font face=&quot;Calibri&quot;&gt;/&lt;/font&gt;&lt;font face=&quot;宋体&quot;&gt;单（支付时需要&lt;/font&gt;&lt;font face=&quot;Calibri&quot;&gt;3000&lt;/font&gt;&lt;font face=&quot;宋体&quot;&gt;元现金&lt;/font&gt;&lt;font face=&quot;Calibri&quot;&gt;+&lt;/font&gt;&lt;font face=&quot;宋体&quot;&gt;价值&lt;/font&gt;&lt;font face=&quot;Calibri&quot;&gt;300&lt;/font&gt;&lt;font face=&quot;宋体&quot;&gt;元&lt;/font&gt;&lt;/p&gt;" style="whiteSpace=wrap;html=1;rounded=1;" parent="WIyWlLk6GJQsqaUBKTNV-1" vertex="1">
          <mxGeometry x="200" y="660" width="120" height="60" as="geometry" />
        </mxCell>
        <mxCell id="wJaKwitPQJHhGoxhKrAu-31" value="" style="edgeStyle=orthogonalEdgeStyle;rounded=0;orthogonalLoop=1;jettySize=auto;html=1;" parent="WIyWlLk6GJQsqaUBKTNV-1" source="wJaKwitPQJHhGoxhKrAu-28" target="wJaKwitPQJHhGoxhKrAu-30" edge="1">
          <mxGeometry relative="1" as="geometry" />
        </mxCell>
        <mxCell id="wJaKwitPQJHhGoxhKrAu-35" value="" style="edgeStyle=orthogonalEdgeStyle;rounded=0;orthogonalLoop=1;jettySize=auto;html=1;" parent="WIyWlLk6GJQsqaUBKTNV-1" source="wJaKwitPQJHhGoxhKrAu-30" target="wJaKwitPQJHhGoxhKrAu-34" edge="1">
          <mxGeometry relative="1" as="geometry" />
        </mxCell>
        <mxCell id="wJaKwitPQJHhGoxhKrAu-30" value="直推奖励" style="whiteSpace=wrap;html=1;rounded=1;" parent="WIyWlLk6GJQsqaUBKTNV-1" vertex="1">
          <mxGeometry x="850" y="380" width="120" height="60" as="geometry" />
        </mxCell>
        <mxCell id="mll0LeE3y_oYJCZJaChD-18" style="edgeStyle=orthogonalEdgeStyle;rounded=0;orthogonalLoop=1;jettySize=auto;html=1;entryX=1;entryY=0.5;entryDx=0;entryDy=0;" edge="1" parent="WIyWlLk6GJQsqaUBKTNV-1" source="wJaKwitPQJHhGoxhKrAu-34" target="mll0LeE3y_oYJCZJaChD-14">
          <mxGeometry relative="1" as="geometry">
            <Array as="points">
              <mxPoint x="910" y="960" />
            </Array>
          </mxGeometry>
        </mxCell>
        <mxCell id="wJaKwitPQJHhGoxhKrAu-34" value="&lt;p class=&quot;MsoNormal&quot;&gt;&lt;font face=&quot;宋体&quot;&gt;可以享受直推用户每日权益收益的&lt;/font&gt;&lt;font face=&quot;Calibri&quot;&gt;50%&lt;/font&gt;&lt;font face=&quot;宋体&quot;&gt;收益&lt;/font&gt;&lt;font face=&quot;Calibri&quot;&gt;(&lt;/font&gt;&lt;font face=&quot;宋体&quot;&gt;收益从锁仓的权益收益中扣除）&lt;/font&gt;&lt;/p&gt;" style="whiteSpace=wrap;html=1;rounded=1;" parent="WIyWlLk6GJQsqaUBKTNV-1" vertex="1">
          <mxGeometry x="850" y="500" width="120" height="60" as="geometry" />
        </mxCell>
        <mxCell id="mll0LeE3y_oYJCZJaChD-22" value="" style="edgeStyle=orthogonalEdgeStyle;rounded=0;orthogonalLoop=1;jettySize=auto;html=1;" edge="1" parent="WIyWlLk6GJQsqaUBKTNV-1" source="wJaKwitPQJHhGoxhKrAu-39" target="mll0LeE3y_oYJCZJaChD-21">
          <mxGeometry relative="1" as="geometry" />
        </mxCell>
        <mxCell id="mll0LeE3y_oYJCZJaChD-25" style="edgeStyle=orthogonalEdgeStyle;rounded=0;orthogonalLoop=1;jettySize=auto;html=1;" edge="1" parent="WIyWlLk6GJQsqaUBKTNV-1" source="wJaKwitPQJHhGoxhKrAu-39" target="mll0LeE3y_oYJCZJaChD-23">
          <mxGeometry relative="1" as="geometry" />
        </mxCell>
        <mxCell id="wJaKwitPQJHhGoxhKrAu-39" value="团队（代理）" style="rounded=1;whiteSpace=wrap;html=1;movable=1;resizable=1;rotatable=1;deletable=1;editable=1;locked=0;connectable=1;fillColor=#2EE3FF;" parent="WIyWlLk6GJQsqaUBKTNV-1" vertex="1">
          <mxGeometry x="1110" y="140" width="100" height="60" as="geometry" />
        </mxCell>
        <mxCell id="wJaKwitPQJHhGoxhKrAu-42" style="edgeStyle=orthogonalEdgeStyle;rounded=0;orthogonalLoop=1;jettySize=auto;html=1;entryX=0.356;entryY=0.022;entryDx=0;entryDy=0;entryPerimeter=0;" parent="WIyWlLk6GJQsqaUBKTNV-1" source="wJaKwitPQJHhGoxhKrAu-41" target="wJaKwitPQJHhGoxhKrAu-0" edge="1">
          <mxGeometry relative="1" as="geometry" />
        </mxCell>
        <mxCell id="wJaKwitPQJHhGoxhKrAu-122" style="edgeStyle=orthogonalEdgeStyle;rounded=0;orthogonalLoop=1;jettySize=auto;html=1;entryX=0.5;entryY=0;entryDx=0;entryDy=0;" parent="WIyWlLk6GJQsqaUBKTNV-1" source="wJaKwitPQJHhGoxhKrAu-41" target="wJaKwitPQJHhGoxhKrAu-121" edge="1">
          <mxGeometry relative="1" as="geometry" />
        </mxCell>
        <mxCell id="mll0LeE3y_oYJCZJaChD-20" style="edgeStyle=orthogonalEdgeStyle;rounded=0;orthogonalLoop=1;jettySize=auto;html=1;entryX=0.5;entryY=0.167;entryDx=0;entryDy=0;entryPerimeter=0;" edge="1" parent="WIyWlLk6GJQsqaUBKTNV-1" source="wJaKwitPQJHhGoxhKrAu-41" target="wJaKwitPQJHhGoxhKrAu-39">
          <mxGeometry relative="1" as="geometry" />
        </mxCell>
        <mxCell id="wJaKwitPQJHhGoxhKrAu-41" value="开始" style="rounded=1;whiteSpace=wrap;html=1;" parent="WIyWlLk6GJQsqaUBKTNV-1" vertex="1">
          <mxGeometry x="780" width="120" height="60" as="geometry" />
        </mxCell>
        <mxCell id="wJaKwitPQJHhGoxhKrAu-50" value="附录分销用例" style="text;html=1;strokeColor=none;fillColor=none;align=center;verticalAlign=middle;whiteSpace=wrap;rounded=0;" parent="WIyWlLk6GJQsqaUBKTNV-1" vertex="1">
          <mxGeometry x="130" y="1160" width="80" height="30" as="geometry" />
        </mxCell>
        <mxCell id="wJaKwitPQJHhGoxhKrAu-61" value="" style="edgeStyle=orthogonalEdgeStyle;rounded=0;orthogonalLoop=1;jettySize=auto;html=1;" parent="WIyWlLk6GJQsqaUBKTNV-1" source="wJaKwitPQJHhGoxhKrAu-52" target="wJaKwitPQJHhGoxhKrAu-60" edge="1">
          <mxGeometry relative="1" as="geometry" />
        </mxCell>
        <mxCell id="wJaKwitPQJHhGoxhKrAu-85" style="edgeStyle=orthogonalEdgeStyle;rounded=0;orthogonalLoop=1;jettySize=auto;html=1;entryX=0.5;entryY=0;entryDx=0;entryDy=0;entryPerimeter=0;" parent="WIyWlLk6GJQsqaUBKTNV-1" source="wJaKwitPQJHhGoxhKrAu-56" target="wJaKwitPQJHhGoxhKrAu-52" edge="1">
          <mxGeometry relative="1" as="geometry" />
        </mxCell>
        <UserObject label="总代理" id="wJaKwitPQJHhGoxhKrAu-56">
          <mxCell style="shape=umlActor;verticalLabelPosition=bottom;verticalAlign=top;html=1;outlineConnect=0;fillColor=#FF3912;" parent="WIyWlLk6GJQsqaUBKTNV-1" vertex="1">
            <mxGeometry x="280" y="1215" width="30" height="60" as="geometry" />
          </mxCell>
        </UserObject>
        <mxCell id="wJaKwitPQJHhGoxhKrAu-63" value="" style="edgeStyle=orthogonalEdgeStyle;rounded=0;orthogonalLoop=1;jettySize=auto;html=1;" parent="WIyWlLk6GJQsqaUBKTNV-1" source="wJaKwitPQJHhGoxhKrAu-60" target="wJaKwitPQJHhGoxhKrAu-62" edge="1">
          <mxGeometry relative="1" as="geometry" />
        </mxCell>
        <UserObject label="服务中心" id="wJaKwitPQJHhGoxhKrAu-60">
          <mxCell style="shape=umlActor;verticalLabelPosition=bottom;verticalAlign=top;html=1;outlineConnect=0;" parent="WIyWlLk6GJQsqaUBKTNV-1" vertex="1">
            <mxGeometry x="280" y="1470" width="30" height="60" as="geometry" />
          </mxCell>
        </UserObject>
        <mxCell id="wJaKwitPQJHhGoxhKrAu-65" value="" style="edgeStyle=orthogonalEdgeStyle;rounded=0;orthogonalLoop=1;jettySize=auto;html=1;" parent="WIyWlLk6GJQsqaUBKTNV-1" source="wJaKwitPQJHhGoxhKrAu-62" target="wJaKwitPQJHhGoxhKrAu-64" edge="1">
          <mxGeometry relative="1" as="geometry" />
        </mxCell>
        <UserObject label="V8&lt;br&gt;" id="wJaKwitPQJHhGoxhKrAu-62">
          <mxCell style="shape=umlActor;verticalLabelPosition=bottom;verticalAlign=top;html=1;outlineConnect=0;" parent="WIyWlLk6GJQsqaUBKTNV-1" vertex="1">
            <mxGeometry x="280" y="1590" width="30" height="60" as="geometry" />
          </mxCell>
        </UserObject>
        <mxCell id="wJaKwitPQJHhGoxhKrAu-67" value="" style="edgeStyle=orthogonalEdgeStyle;rounded=0;orthogonalLoop=1;jettySize=auto;html=1;" parent="WIyWlLk6GJQsqaUBKTNV-1" source="wJaKwitPQJHhGoxhKrAu-64" target="wJaKwitPQJHhGoxhKrAu-66" edge="1">
          <mxGeometry relative="1" as="geometry" />
        </mxCell>
        <UserObject label="V7" id="wJaKwitPQJHhGoxhKrAu-64">
          <mxCell style="shape=umlActor;verticalLabelPosition=bottom;verticalAlign=top;html=1;outlineConnect=0;" parent="WIyWlLk6GJQsqaUBKTNV-1" vertex="1">
            <mxGeometry x="280" y="1730" width="30" height="60" as="geometry" />
          </mxCell>
        </UserObject>
        <mxCell id="wJaKwitPQJHhGoxhKrAu-69" value="" style="edgeStyle=orthogonalEdgeStyle;rounded=0;orthogonalLoop=1;jettySize=auto;html=1;" parent="WIyWlLk6GJQsqaUBKTNV-1" source="wJaKwitPQJHhGoxhKrAu-66" target="wJaKwitPQJHhGoxhKrAu-68" edge="1">
          <mxGeometry relative="1" as="geometry" />
        </mxCell>
        <UserObject label="V6" id="wJaKwitPQJHhGoxhKrAu-66">
          <mxCell style="shape=umlActor;verticalLabelPosition=bottom;verticalAlign=top;html=1;outlineConnect=0;" parent="WIyWlLk6GJQsqaUBKTNV-1" vertex="1">
            <mxGeometry x="280" y="1870" width="30" height="60" as="geometry" />
          </mxCell>
        </UserObject>
        <mxCell id="wJaKwitPQJHhGoxhKrAu-71" value="" style="edgeStyle=orthogonalEdgeStyle;rounded=0;orthogonalLoop=1;jettySize=auto;html=1;" parent="WIyWlLk6GJQsqaUBKTNV-1" source="wJaKwitPQJHhGoxhKrAu-68" target="wJaKwitPQJHhGoxhKrAu-70" edge="1">
          <mxGeometry relative="1" as="geometry" />
        </mxCell>
        <UserObject label="V5" id="wJaKwitPQJHhGoxhKrAu-68">
          <mxCell style="shape=umlActor;verticalLabelPosition=bottom;verticalAlign=top;html=1;outlineConnect=0;" parent="WIyWlLk6GJQsqaUBKTNV-1" vertex="1">
            <mxGeometry x="280" y="2010" width="30" height="60" as="geometry" />
          </mxCell>
        </UserObject>
        <mxCell id="wJaKwitPQJHhGoxhKrAu-73" value="" style="edgeStyle=orthogonalEdgeStyle;rounded=0;orthogonalLoop=1;jettySize=auto;html=1;" parent="WIyWlLk6GJQsqaUBKTNV-1" source="wJaKwitPQJHhGoxhKrAu-70" target="wJaKwitPQJHhGoxhKrAu-72" edge="1">
          <mxGeometry relative="1" as="geometry" />
        </mxCell>
        <UserObject label="V4" id="wJaKwitPQJHhGoxhKrAu-70">
          <mxCell style="shape=umlActor;verticalLabelPosition=bottom;verticalAlign=top;html=1;outlineConnect=0;" parent="WIyWlLk6GJQsqaUBKTNV-1" vertex="1">
            <mxGeometry x="280" y="2150" width="30" height="60" as="geometry" />
          </mxCell>
        </UserObject>
        <mxCell id="wJaKwitPQJHhGoxhKrAu-75" value="" style="edgeStyle=orthogonalEdgeStyle;rounded=0;orthogonalLoop=1;jettySize=auto;html=1;" parent="WIyWlLk6GJQsqaUBKTNV-1" source="wJaKwitPQJHhGoxhKrAu-72" target="wJaKwitPQJHhGoxhKrAu-74" edge="1">
          <mxGeometry relative="1" as="geometry" />
        </mxCell>
        <UserObject label="V3&lt;br&gt;" id="wJaKwitPQJHhGoxhKrAu-72">
          <mxCell style="shape=umlActor;verticalLabelPosition=bottom;verticalAlign=top;html=1;outlineConnect=0;" parent="WIyWlLk6GJQsqaUBKTNV-1" vertex="1">
            <mxGeometry x="280" y="2290" width="30" height="60" as="geometry" />
          </mxCell>
        </UserObject>
        <mxCell id="wJaKwitPQJHhGoxhKrAu-77" value="" style="edgeStyle=orthogonalEdgeStyle;rounded=0;orthogonalLoop=1;jettySize=auto;html=1;" parent="WIyWlLk6GJQsqaUBKTNV-1" source="wJaKwitPQJHhGoxhKrAu-74" target="wJaKwitPQJHhGoxhKrAu-76" edge="1">
          <mxGeometry relative="1" as="geometry" />
        </mxCell>
        <UserObject label="V2&lt;br&gt;" id="wJaKwitPQJHhGoxhKrAu-74">
          <mxCell style="shape=umlActor;verticalLabelPosition=bottom;verticalAlign=top;html=1;outlineConnect=0;" parent="WIyWlLk6GJQsqaUBKTNV-1" vertex="1">
            <mxGeometry x="280" y="2430" width="30" height="60" as="geometry" />
          </mxCell>
        </UserObject>
        <UserObject label="V1" id="wJaKwitPQJHhGoxhKrAu-76">
          <mxCell style="shape=umlActor;verticalLabelPosition=bottom;verticalAlign=top;html=1;outlineConnect=0;" parent="WIyWlLk6GJQsqaUBKTNV-1" vertex="1">
            <mxGeometry x="280" y="2570" width="30" height="60" as="geometry" />
          </mxCell>
        </UserObject>
        <mxCell id="wJaKwitPQJHhGoxhKrAu-82" value="推荐" style="edgeStyle=orthogonalEdgeStyle;rounded=0;orthogonalLoop=1;jettySize=auto;html=1;" parent="WIyWlLk6GJQsqaUBKTNV-1" target="wJaKwitPQJHhGoxhKrAu-80" edge="1">
          <mxGeometry relative="1" as="geometry">
            <mxPoint x="405" y="1280" as="sourcePoint" />
          </mxGeometry>
        </mxCell>
        <mxCell id="wJaKwitPQJHhGoxhKrAu-79" value="总代理" style="shape=umlActor;verticalLabelPosition=bottom;verticalAlign=top;html=1;outlineConnect=0;" parent="WIyWlLk6GJQsqaUBKTNV-1" vertex="1">
          <mxGeometry x="390" y="1210" width="30" height="70" as="geometry" />
        </mxCell>
        <mxCell id="wJaKwitPQJHhGoxhKrAu-83" style="edgeStyle=orthogonalEdgeStyle;rounded=0;orthogonalLoop=1;jettySize=auto;html=1;exitX=0.5;exitY=0.5;exitDx=0;exitDy=0;exitPerimeter=0;" parent="WIyWlLk6GJQsqaUBKTNV-1" source="wJaKwitPQJHhGoxhKrAu-80" edge="1">
          <mxGeometry relative="1" as="geometry">
            <mxPoint x="405" y="1430" as="targetPoint" />
          </mxGeometry>
        </mxCell>
        <UserObject label="省代理" id="wJaKwitPQJHhGoxhKrAu-80">
          <mxCell style="shape=umlActor;verticalLabelPosition=bottom;verticalAlign=top;html=1;outlineConnect=0;" parent="WIyWlLk6GJQsqaUBKTNV-1" vertex="1">
            <mxGeometry x="390" y="1400" width="30" height="60" as="geometry" />
          </mxCell>
        </UserObject>
        <mxCell id="wJaKwitPQJHhGoxhKrAu-52" value="省代理" style="shape=umlActor;verticalLabelPosition=bottom;verticalAlign=top;html=1;outlineConnect=0;strokeColor=#000000;" parent="WIyWlLk6GJQsqaUBKTNV-1" vertex="1">
          <mxGeometry x="280" y="1340" width="30" height="60" as="geometry" />
        </mxCell>
        <mxCell id="wJaKwitPQJHhGoxhKrAu-86" value="推荐" style="edgeStyle=orthogonalEdgeStyle;rounded=0;orthogonalLoop=1;jettySize=auto;html=1;" parent="WIyWlLk6GJQsqaUBKTNV-1" target="wJaKwitPQJHhGoxhKrAu-89" edge="1">
          <mxGeometry relative="1" as="geometry">
            <mxPoint x="495" y="1280" as="sourcePoint" />
          </mxGeometry>
        </mxCell>
        <mxCell id="wJaKwitPQJHhGoxhKrAu-87" value="省代理" style="shape=umlActor;verticalLabelPosition=bottom;verticalAlign=top;html=1;outlineConnect=0;" parent="WIyWlLk6GJQsqaUBKTNV-1" vertex="1">
          <mxGeometry x="480" y="1210" width="30" height="70" as="geometry" />
        </mxCell>
        <mxCell id="wJaKwitPQJHhGoxhKrAu-88" style="edgeStyle=orthogonalEdgeStyle;rounded=0;orthogonalLoop=1;jettySize=auto;html=1;exitX=0.5;exitY=0.5;exitDx=0;exitDy=0;exitPerimeter=0;" parent="WIyWlLk6GJQsqaUBKTNV-1" source="wJaKwitPQJHhGoxhKrAu-89" edge="1">
          <mxGeometry relative="1" as="geometry">
            <mxPoint x="495" y="1430" as="targetPoint" />
          </mxGeometry>
        </mxCell>
        <UserObject label="服务中心" id="wJaKwitPQJHhGoxhKrAu-89">
          <mxCell style="shape=umlActor;verticalLabelPosition=bottom;verticalAlign=top;html=1;outlineConnect=0;" parent="WIyWlLk6GJQsqaUBKTNV-1" vertex="1">
            <mxGeometry x="480" y="1400" width="30" height="60" as="geometry" />
          </mxCell>
        </UserObject>
        <mxCell id="wJaKwitPQJHhGoxhKrAu-90" value="必须上下级" style="text;html=1;strokeColor=none;fillColor=none;align=center;verticalAlign=middle;whiteSpace=wrap;rounded=0;" parent="WIyWlLk6GJQsqaUBKTNV-1" vertex="1">
          <mxGeometry x="420" y="1245" width="60" height="30" as="geometry" />
        </mxCell>
        <mxCell id="wJaKwitPQJHhGoxhKrAu-91" value="推荐" style="edgeStyle=orthogonalEdgeStyle;rounded=0;orthogonalLoop=1;jettySize=auto;html=1;" parent="WIyWlLk6GJQsqaUBKTNV-1" target="wJaKwitPQJHhGoxhKrAu-94" edge="1">
          <mxGeometry relative="1" as="geometry">
            <mxPoint x="565" y="1280" as="sourcePoint" />
            <mxPoint as="offset" />
          </mxGeometry>
        </mxCell>
        <mxCell id="wJaKwitPQJHhGoxhKrAu-92" value="服务中心" style="shape=umlActor;verticalLabelPosition=bottom;verticalAlign=top;html=1;outlineConnect=0;" parent="WIyWlLk6GJQsqaUBKTNV-1" vertex="1">
          <mxGeometry x="550" y="1210" width="30" height="70" as="geometry" />
        </mxCell>
        <mxCell id="wJaKwitPQJHhGoxhKrAu-93" style="edgeStyle=orthogonalEdgeStyle;rounded=0;orthogonalLoop=1;jettySize=auto;html=1;exitX=0.5;exitY=0.5;exitDx=0;exitDy=0;exitPerimeter=0;" parent="WIyWlLk6GJQsqaUBKTNV-1" source="wJaKwitPQJHhGoxhKrAu-94" edge="1">
          <mxGeometry relative="1" as="geometry">
            <mxPoint x="565" y="1430" as="targetPoint" />
          </mxGeometry>
        </mxCell>
        <UserObject label="V1-V8" id="wJaKwitPQJHhGoxhKrAu-94">
          <mxCell style="shape=umlActor;verticalLabelPosition=bottom;verticalAlign=top;html=1;outlineConnect=0;" parent="WIyWlLk6GJQsqaUBKTNV-1" vertex="1">
            <mxGeometry x="550" y="1400" width="30" height="60" as="geometry" />
          </mxCell>
        </UserObject>
        <mxCell id="wJaKwitPQJHhGoxhKrAu-28" value="&lt;b&gt;推广收益&lt;br&gt;&lt;/b&gt;&lt;p class=&quot;MsoNormal&quot;&gt;&lt;font face=&quot;宋体&quot;&gt;牧童奖励&lt;/font&gt;&lt;/p&gt;" style="whiteSpace=wrap;html=1;rounded=1;fillColor=#FF6666;" parent="WIyWlLk6GJQsqaUBKTNV-1" vertex="1">
          <mxGeometry x="850" y="255" width="120" height="60" as="geometry" />
        </mxCell>
        <mxCell id="wJaKwitPQJHhGoxhKrAu-124" value="" style="edgeStyle=orthogonalEdgeStyle;rounded=0;orthogonalLoop=1;jettySize=auto;html=1;" parent="WIyWlLk6GJQsqaUBKTNV-1" source="wJaKwitPQJHhGoxhKrAu-121" edge="1">
          <mxGeometry relative="1" as="geometry">
            <mxPoint x="1660" y="255" as="targetPoint" />
          </mxGeometry>
        </mxCell>
        <mxCell id="wJaKwitPQJHhGoxhKrAu-126" value="" style="edgeStyle=orthogonalEdgeStyle;rounded=0;orthogonalLoop=1;jettySize=auto;html=1;" parent="WIyWlLk6GJQsqaUBKTNV-1" source="wJaKwitPQJHhGoxhKrAu-121" target="wJaKwitPQJHhGoxhKrAu-125" edge="1">
          <mxGeometry relative="1" as="geometry" />
        </mxCell>
        <mxCell id="wJaKwitPQJHhGoxhKrAu-121" value="平台" style="rounded=1;whiteSpace=wrap;html=1;fillColor=#29FFF1;" parent="WIyWlLk6GJQsqaUBKTNV-1" vertex="1">
          <mxGeometry x="1600" y="150" width="120" height="60" as="geometry" />
        </mxCell>
        <mxCell id="wJaKwitPQJHhGoxhKrAu-128" value="" style="edgeStyle=orthogonalEdgeStyle;rounded=0;orthogonalLoop=1;jettySize=auto;html=1;" parent="WIyWlLk6GJQsqaUBKTNV-1" source="wJaKwitPQJHhGoxhKrAu-125" target="wJaKwitPQJHhGoxhKrAu-127" edge="1">
          <mxGeometry relative="1" as="geometry" />
        </mxCell>
        <mxCell id="wJaKwitPQJHhGoxhKrAu-125" value="&lt;font style=&quot;font-size: 10px;&quot;&gt;平台收益&lt;br&gt;&lt;/font&gt;&lt;p class=&quot;MsoNormal&quot;&gt;&lt;font size=&quot;3&quot; face=&quot;宋体&quot;&gt;加权分红&lt;/font&gt;&lt;/p&gt;" style="rounded=1;whiteSpace=wrap;html=1;fillColor=#00FFFF;" parent="WIyWlLk6GJQsqaUBKTNV-1" vertex="1">
          <mxGeometry x="1601" y="255" width="120" height="60" as="geometry" />
        </mxCell>
        <mxCell id="mll0LeE3y_oYJCZJaChD-44" style="edgeStyle=orthogonalEdgeStyle;rounded=0;orthogonalLoop=1;jettySize=auto;html=1;entryX=1;entryY=0.5;entryDx=0;entryDy=0;" edge="1" parent="WIyWlLk6GJQsqaUBKTNV-1" source="wJaKwitPQJHhGoxhKrAu-127" target="mll0LeE3y_oYJCZJaChD-14">
          <mxGeometry relative="1" as="geometry" />
        </mxCell>
        <mxCell id="wJaKwitPQJHhGoxhKrAu-127" value="&lt;p style=&quot;mso-pagination:none;text-align:left;&quot; class=&quot;MsoNormal&quot;&gt;&lt;font face=&quot;Calibri&quot;&gt;`&lt;/font&gt;&lt;font style=&quot;font-size: 10.5pt; background-color: initial;&quot; face=&quot;Calibri&quot;&gt;V6 &amp;nbsp;v7 &amp;nbsp;v8&lt;/font&gt;&lt;font style=&quot;font-family: 宋体; font-size: 10.5pt; background-color: initial;&quot; face=&quot;宋体&quot;&gt;三个级别各享受全网权益（静态收益） 收益的&lt;/font&gt;&lt;font style=&quot;font-size: 10.5pt; background-color: initial;&quot; face=&quot;Calibri&quot;&gt;0.5%&lt;/font&gt;&lt;font style=&quot;font-family: 宋体; font-size: 10.5pt; background-color: initial;&quot; face=&quot;宋体&quot;&gt;（按级别数量平分，例如：当天全网权益收益&lt;/font&gt;&lt;font style=&quot;font-size: 10.5pt; background-color: initial;&quot; face=&quot;Calibri&quot;&gt;100&lt;/font&gt;&lt;font style=&quot;font-family: 宋体; font-size: 10.5pt; background-color: initial;&quot; face=&quot;宋体&quot;&gt;万，则&lt;/font&gt;&lt;font style=&quot;font-size: 10.5pt; background-color: initial;&quot; face=&quot;Calibri&quot;&gt;v6&lt;/font&gt;&lt;font style=&quot;font-family: 宋体; font-size: 10.5pt; background-color: initial;&quot; face=&quot;宋体&quot;&gt;享受&lt;/font&gt;&lt;font style=&quot;font-size: 10.5pt; background-color: initial;&quot; face=&quot;Calibri&quot;&gt;0.5&lt;/font&gt;&lt;font style=&quot;font-family: 宋体; font-size: 10.5pt; background-color: initial;&quot; face=&quot;宋体&quot;&gt;万（&lt;/font&gt;&lt;font style=&quot;font-size: 10.5pt; background-color: initial;&quot; face=&quot;Calibri&quot;&gt;v6&lt;/font&gt;&lt;font style=&quot;font-family: 宋体; font-size: 10.5pt; background-color: initial;&quot; face=&quot;宋体&quot;&gt;有&lt;/font&gt;&lt;font style=&quot;font-size: 10.5pt; background-color: initial;&quot; face=&quot;Calibri&quot;&gt;5&lt;/font&gt;&lt;font style=&quot;font-family: 宋体; font-size: 10.5pt; background-color: initial;&quot; face=&quot;宋体&quot;&gt;个，则每个分&lt;/font&gt;&lt;font style=&quot;font-size: 10.5pt; background-color: initial;&quot; face=&quot;Calibri&quot;&gt;0.5/5=0.1&lt;/font&gt;&lt;font style=&quot;font-family: 宋体; font-size: 10.5pt; background-color: initial;&quot; face=&quot;宋体&quot;&gt;万元）&lt;/font&gt;&lt;/p&gt;&lt;p style=&quot;mso-pagination:none;text-align:left;&quot; class=&quot;MsoNormal&quot;&gt;&amp;nbsp;&amp;nbsp;&amp;nbsp;&amp;nbsp;&amp;nbsp;&amp;nbsp;&amp;nbsp;&amp;nbsp;&amp;nbsp;&amp;nbsp;&amp;nbsp;&amp;nbsp;&amp;nbsp;&amp;nbsp;&lt;font face=&quot;Calibri&quot;&gt;v7&lt;/font&gt;&lt;font face=&quot;宋体&quot;&gt;享受&lt;/font&gt;&lt;font face=&quot;Calibri&quot;&gt;0.5&lt;/font&gt;&lt;font face=&quot;宋体&quot;&gt;万（&lt;/font&gt;&lt;font face=&quot;Calibri&quot;&gt;v7&lt;/font&gt;&lt;font face=&quot;宋体&quot;&gt;有&lt;/font&gt;&lt;font face=&quot;Calibri&quot;&gt;3&lt;/font&gt;&lt;font face=&quot;宋体&quot;&gt;个，则每个分&lt;/font&gt;&lt;font face=&quot;Calibri&quot;&gt;0.5/3=0.166&lt;/font&gt;&lt;font face=&quot;宋体&quot;&gt;万元）&lt;/font&gt;&lt;span&gt;&lt;/span&gt;&lt;/p&gt;" style="rounded=1;whiteSpace=wrap;html=1;fillColor=#00FFFF;" parent="WIyWlLk6GJQsqaUBKTNV-1" vertex="1">
          <mxGeometry x="1620" y="660" width="250" height="230" as="geometry" />
        </mxCell>
        <mxCell id="wJaKwitPQJHhGoxhKrAu-129" value="结束" style="rounded=1;whiteSpace=wrap;html=1;fillColor=#d5e8d4;strokeColor=#82b366;" parent="WIyWlLk6GJQsqaUBKTNV-1" vertex="1">
          <mxGeometry x="380" y="1130" width="1420" height="60" as="geometry" />
        </mxCell>
        <mxCell id="mll0LeE3y_oYJCZJaChD-5" style="edgeStyle=orthogonalEdgeStyle;rounded=0;orthogonalLoop=1;jettySize=auto;html=1;" edge="1" parent="WIyWlLk6GJQsqaUBKTNV-1" source="mll0LeE3y_oYJCZJaChD-0" target="mll0LeE3y_oYJCZJaChD-3">
          <mxGeometry relative="1" as="geometry" />
        </mxCell>
        <mxCell id="mll0LeE3y_oYJCZJaChD-7" style="edgeStyle=orthogonalEdgeStyle;rounded=0;orthogonalLoop=1;jettySize=auto;html=1;" edge="1" parent="WIyWlLk6GJQsqaUBKTNV-1" source="mll0LeE3y_oYJCZJaChD-0" target="wJaKwitPQJHhGoxhKrAu-5">
          <mxGeometry relative="1" as="geometry" />
        </mxCell>
        <mxCell id="mll0LeE3y_oYJCZJaChD-0" value="支付&lt;br&gt;可选择&lt;br&gt;牛牛值,牛牛值+牛宝宝，现金+牛宝宝，牛值，（可互相搭配）提供商品类型模板&lt;br&gt;可选择具体的支付方式" style="rounded=1;whiteSpace=wrap;html=1;" vertex="1" parent="WIyWlLk6GJQsqaUBKTNV-1">
          <mxGeometry x="110" y="380" width="130" height="120" as="geometry" />
        </mxCell>
        <mxCell id="mll0LeE3y_oYJCZJaChD-6" style="edgeStyle=orthogonalEdgeStyle;rounded=0;orthogonalLoop=1;jettySize=auto;html=1;" edge="1" parent="WIyWlLk6GJQsqaUBKTNV-1" source="mll0LeE3y_oYJCZJaChD-3" target="wJaKwitPQJHhGoxhKrAu-7">
          <mxGeometry relative="1" as="geometry" />
        </mxCell>
        <mxCell id="mll0LeE3y_oYJCZJaChD-3" value="自购" style="whiteSpace=wrap;html=1;rounded=1;" vertex="1" parent="WIyWlLk6GJQsqaUBKTNV-1">
          <mxGeometry x="20" y="542.5" width="120" height="60" as="geometry" />
        </mxCell>
        <mxCell id="mll0LeE3y_oYJCZJaChD-12" value="备注&lt;br&gt;牛牛值，牛值来源于充值&lt;br&gt;牛宝宝来源于牛积分&lt;br&gt;" style="text;html=1;strokeColor=#82b366;fillColor=#d5e8d4;align=center;verticalAlign=middle;whiteSpace=wrap;rounded=0;" vertex="1" parent="WIyWlLk6GJQsqaUBKTNV-1">
          <mxGeometry x="250" y="375" width="60" height="115" as="geometry" />
        </mxCell>
        <mxCell id="mll0LeE3y_oYJCZJaChD-19" style="edgeStyle=orthogonalEdgeStyle;rounded=0;orthogonalLoop=1;jettySize=auto;html=1;" edge="1" parent="WIyWlLk6GJQsqaUBKTNV-1" source="mll0LeE3y_oYJCZJaChD-14">
          <mxGeometry relative="1" as="geometry">
            <mxPoint x="490" y="1110" as="targetPoint" />
          </mxGeometry>
        </mxCell>
        <mxCell id="mll0LeE3y_oYJCZJaChD-14" value="锁仓释放&amp;nbsp; 权益收益减去发送的收益" style="whiteSpace=wrap;html=1;rounded=1;" vertex="1" parent="WIyWlLk6GJQsqaUBKTNV-1">
          <mxGeometry x="430" y="930" width="1010" height="70" as="geometry" />
        </mxCell>
        <mxCell id="mll0LeE3y_oYJCZJaChD-40" value="" style="edgeStyle=orthogonalEdgeStyle;rounded=0;orthogonalLoop=1;jettySize=auto;html=1;" edge="1" parent="WIyWlLk6GJQsqaUBKTNV-1" source="mll0LeE3y_oYJCZJaChD-21" target="mll0LeE3y_oYJCZJaChD-39">
          <mxGeometry relative="1" as="geometry" />
        </mxCell>
        <mxCell id="mll0LeE3y_oYJCZJaChD-21" value="自动达标等级&lt;br&gt;V1-V7&lt;br&gt;根据达标条件&lt;br&gt;自动生成" style="rounded=1;whiteSpace=wrap;html=1;movable=1;resizable=1;rotatable=1;deletable=1;editable=1;locked=0;connectable=1;fillColor=#2EE3FF;" vertex="1" parent="WIyWlLk6GJQsqaUBKTNV-1">
          <mxGeometry x="1010" y="280" width="100" height="60" as="geometry" />
        </mxCell>
        <mxCell id="mll0LeE3y_oYJCZJaChD-31" value="" style="edgeStyle=orthogonalEdgeStyle;rounded=0;orthogonalLoop=1;jettySize=auto;html=1;" edge="1" parent="WIyWlLk6GJQsqaUBKTNV-1" source="mll0LeE3y_oYJCZJaChD-23" target="mll0LeE3y_oYJCZJaChD-30">
          <mxGeometry relative="1" as="geometry" />
        </mxCell>
        <mxCell id="mll0LeE3y_oYJCZJaChD-23" value="后台代理申请" style="rounded=1;whiteSpace=wrap;html=1;movable=1;resizable=1;rotatable=1;deletable=1;editable=1;locked=0;connectable=1;fillColor=#2EE3FF;" vertex="1" parent="WIyWlLk6GJQsqaUBKTNV-1">
          <mxGeometry x="1190" y="280" width="100" height="60" as="geometry" />
        </mxCell>
        <mxCell id="mll0LeE3y_oYJCZJaChD-29" value="" style="edgeStyle=orthogonalEdgeStyle;rounded=0;orthogonalLoop=1;jettySize=auto;html=1;" edge="1" parent="WIyWlLk6GJQsqaUBKTNV-1" source="mll0LeE3y_oYJCZJaChD-26" target="mll0LeE3y_oYJCZJaChD-28">
          <mxGeometry relative="1" as="geometry" />
        </mxCell>
        <mxCell id="mll0LeE3y_oYJCZJaChD-26" value="团队收益&lt;br style=&quot;--tw-border-spacing-x: 0; --tw-border-spacing-y: 0; --tw-translate-x: 0; --tw-translate-y: 0; --tw-rotate: 0; --tw-skew-x: 0; --tw-skew-y: 0; --tw-scale-x: 1; --tw-scale-y: 1; --tw-scroll-snap-strictness: proximity; --tw-ring-offset-width: 0px; --tw-ring-offset-color: #fff; --tw-ring-color: rgba(59, 130, 246, 0.5); --tw-ring-offset-shadow: 0 0 #0000; --tw-ring-shadow: 0 0 #0000; --tw-shadow: 0 0 #0000; --tw-shadow-colored: 0 0 #0000; border-color: var(--border-color);&quot;&gt;&lt;p style=&quot;--tw-border-spacing-x: 0; --tw-border-spacing-y: 0; --tw-translate-x: 0; --tw-translate-y: 0; --tw-rotate: 0; --tw-skew-x: 0; --tw-skew-y: 0; --tw-scale-x: 1; --tw-scale-y: 1; --tw-scroll-snap-strictness: proximity; --tw-ring-offset-width: 0px; --tw-ring-offset-color: #fff; --tw-ring-color: rgba(59, 130, 246, 0.5); --tw-ring-offset-shadow: 0 0 #0000; --tw-ring-shadow: 0 0 #0000; --tw-shadow: 0 0 #0000; --tw-shadow-colored: 0 0 #0000; border-color: var(--border-color);&quot; class=&quot;MsoNormal&quot;&gt;&lt;font style=&quot;--tw-border-spacing-x: 0; --tw-border-spacing-y: 0; --tw-translate-x: 0; --tw-translate-y: 0; --tw-rotate: 0; --tw-skew-x: 0; --tw-skew-y: 0; --tw-scale-x: 1; --tw-scale-y: 1; --tw-scroll-snap-strictness: proximity; --tw-ring-offset-width: 0px; --tw-ring-offset-color: #fff; --tw-ring-color: rgba(59, 130, 246, 0.5); --tw-ring-offset-shadow: 0 0 #0000; --tw-ring-shadow: 0 0 #0000; --tw-shadow: 0 0 #0000; --tw-shadow-colored: 0 0 #0000; border-color: var(--border-color);&quot; face=&quot;宋体&quot;&gt;牧主奖励&lt;/font&gt;&lt;/p&gt;" style="whiteSpace=wrap;html=1;fillColor=#2EE3FF;rounded=1;" vertex="1" parent="WIyWlLk6GJQsqaUBKTNV-1">
          <mxGeometry x="1000" y="660" width="120" height="60" as="geometry" />
        </mxCell>
        <mxCell id="mll0LeE3y_oYJCZJaChD-34" style="edgeStyle=orthogonalEdgeStyle;rounded=0;orthogonalLoop=1;jettySize=auto;html=1;entryX=0.624;entryY=0.01;entryDx=0;entryDy=0;entryPerimeter=0;" edge="1" parent="WIyWlLk6GJQsqaUBKTNV-1" source="mll0LeE3y_oYJCZJaChD-28" target="mll0LeE3y_oYJCZJaChD-14">
          <mxGeometry relative="1" as="geometry">
            <mxPoint x="1060" y="920" as="targetPoint" />
          </mxGeometry>
        </mxCell>
        <mxCell id="mll0LeE3y_oYJCZJaChD-28" value="&lt;font style=&quot;--tw-border-spacing-x: 0; --tw-border-spacing-y: 0; --tw-translate-x: 0; --tw-translate-y: 0; --tw-rotate: 0; --tw-skew-x: 0; --tw-skew-y: 0; --tw-scale-x: 1; --tw-scale-y: 1; --tw-scroll-snap-strictness: proximity; --tw-ring-offset-width: 0px; --tw-ring-offset-color: #fff; --tw-ring-color: rgba(59, 130, 246, 0.5); --tw-ring-offset-shadow: 0 0 #0000; --tw-ring-shadow: 0 0 #0000; --tw-shadow: 0 0 #0000; --tw-shadow-colored: 0 0 #0000; border-color: var(--border-color);&quot; face=&quot;宋体&quot;&gt;（级差制度，平级拿收益&lt;/font&gt;&lt;font style=&quot;--tw-border-spacing-x: 0; --tw-border-spacing-y: 0; --tw-translate-x: 0; --tw-translate-y: 0; --tw-rotate: 0; --tw-skew-x: 0; --tw-skew-y: 0; --tw-scale-x: 1; --tw-scale-y: 1; --tw-scroll-snap-strictness: proximity; --tw-ring-offset-width: 0px; --tw-ring-offset-color: #fff; --tw-ring-color: rgba(59, 130, 246, 0.5); --tw-ring-offset-shadow: 0 0 #0000; --tw-ring-shadow: 0 0 #0000; --tw-shadow: 0 0 #0000; --tw-shadow-colored: 0 0 #0000; border-color: var(--border-color);&quot; face=&quot;Calibri&quot;&gt;10%&lt;/font&gt;&lt;font style=&quot;--tw-border-spacing-x: 0; --tw-border-spacing-y: 0; --tw-translate-x: 0; --tw-translate-y: 0; --tw-rotate: 0; --tw-skew-x: 0; --tw-skew-y: 0; --tw-scale-x: 1; --tw-scale-y: 1; --tw-scroll-snap-strictness: proximity; --tw-ring-offset-width: 0px; --tw-ring-offset-color: #fff; --tw-ring-color: rgba(59, 130, 246, 0.5); --tw-ring-offset-shadow: 0 0 #0000; --tw-ring-shadow: 0 0 #0000; --tw-shadow: 0 0 #0000; --tw-shadow-colored: 0 0 #0000; border-color: var(--border-color);&quot; face=&quot;宋体&quot;&gt;）&lt;/font&gt;" style="whiteSpace=wrap;html=1;fillColor=#2EE3FF;rounded=1;" vertex="1" parent="WIyWlLk6GJQsqaUBKTNV-1">
          <mxGeometry x="1000" y="745" width="120" height="60" as="geometry" />
        </mxCell>
        <mxCell id="mll0LeE3y_oYJCZJaChD-33" value="" style="edgeStyle=orthogonalEdgeStyle;rounded=0;orthogonalLoop=1;jettySize=auto;html=1;" edge="1" parent="WIyWlLk6GJQsqaUBKTNV-1" source="mll0LeE3y_oYJCZJaChD-30" target="mll0LeE3y_oYJCZJaChD-32">
          <mxGeometry relative="1" as="geometry" />
        </mxCell>
        <mxCell id="mll0LeE3y_oYJCZJaChD-30" value="系统审核" style="whiteSpace=wrap;html=1;fillColor=#2EE3FF;rounded=1;" vertex="1" parent="WIyWlLk6GJQsqaUBKTNV-1">
          <mxGeometry x="1181" y="402.5" width="120" height="60" as="geometry" />
        </mxCell>
        <mxCell id="mll0LeE3y_oYJCZJaChD-38" style="edgeStyle=orthogonalEdgeStyle;rounded=0;orthogonalLoop=1;jettySize=auto;html=1;" edge="1" parent="WIyWlLk6GJQsqaUBKTNV-1" source="mll0LeE3y_oYJCZJaChD-32">
          <mxGeometry relative="1" as="geometry">
            <mxPoint x="1470" y="1100" as="targetPoint" />
          </mxGeometry>
        </mxCell>
        <mxCell id="mll0LeE3y_oYJCZJaChD-32" value="&lt;p style=&quot;--tw-border-spacing-x: 0; --tw-border-spacing-y: 0; --tw-translate-x: 0; --tw-translate-y: 0; --tw-rotate: 0; --tw-skew-x: 0; --tw-skew-y: 0; --tw-scale-x: 1; --tw-scale-y: 1; --tw-scroll-snap-strictness: proximity; --tw-ring-offset-width: 0px; --tw-ring-offset-color: #fff; --tw-ring-color: rgba(59, 130, 246, 0.5); --tw-ring-offset-shadow: 0 0 #0000; --tw-ring-shadow: 0 0 #0000; --tw-shadow: 0 0 #0000; --tw-shadow-colored: 0 0 #0000; border-color: var(--border-color); text-align: left;&quot; class=&quot;MsoNormal&quot;&gt;&lt;font style=&quot;--tw-border-spacing-x: 0; --tw-border-spacing-y: 0; --tw-translate-x: 0; --tw-translate-y: 0; --tw-rotate: 0; --tw-skew-x: 0; --tw-skew-y: 0; --tw-scale-x: 1; --tw-scale-y: 1; --tw-scroll-snap-strictness: proximity; --tw-ring-offset-width: 0px; --tw-ring-offset-color: #fff; --tw-ring-color: rgba(59, 130, 246, 0.5); --tw-ring-offset-shadow: 0 0 #0000; --tw-ring-shadow: 0 0 #0000; --tw-shadow: 0 0 #0000; --tw-shadow-colored: 0 0 #0000; border-color: var(--border-color);&quot; face=&quot;宋体&quot;&gt;服务中心具有双重收益&lt;/font&gt;&lt;/p&gt;&lt;p style=&quot;--tw-border-spacing-x: 0; --tw-border-spacing-y: 0; --tw-translate-x: 0; --tw-translate-y: 0; --tw-rotate: 0; --tw-skew-x: 0; --tw-skew-y: 0; --tw-scale-x: 1; --tw-scale-y: 1; --tw-scroll-snap-strictness: proximity; --tw-ring-offset-width: 0px; --tw-ring-offset-color: #fff; --tw-ring-color: rgba(59, 130, 246, 0.5); --tw-ring-offset-shadow: 0 0 #0000; --tw-ring-shadow: 0 0 #0000; --tw-shadow: 0 0 #0000; --tw-shadow-colored: 0 0 #0000; border-color: var(--border-color);&quot; class=&quot;MsoNormal&quot;&gt;&lt;span style=&quot;--tw-border-spacing-x: 0; --tw-border-spacing-y: 0; --tw-translate-x: 0; --tw-translate-y: 0; --tw-rotate: 0; --tw-skew-x: 0; --tw-skew-y: 0; --tw-scale-x: 1; --tw-scale-y: 1; --tw-scroll-snap-strictness: proximity; --tw-ring-offset-width: 0px; --tw-ring-offset-color: #fff; --tw-ring-color: rgba(59, 130, 246, 0.5); --tw-ring-offset-shadow: 0 0 #0000; --tw-ring-shadow: 0 0 #0000; --tw-shadow: 0 0 #0000; --tw-shadow-colored: 0 0 #0000; border-color: var(--border-color);&quot;&gt;(1)&amp;nbsp;&lt;/span&gt;&lt;span style=&quot;--tw-border-spacing-x: 0; --tw-border-spacing-y: 0; --tw-translate-x: 0; --tw-translate-y: 0; --tw-rotate: 0; --tw-skew-x: 0; --tw-skew-y: 0; --tw-scale-x: 1; --tw-scale-y: 1; --tw-scroll-snap-strictness: proximity; --tw-ring-offset-width: 0px; --tw-ring-offset-color: #fff; --tw-ring-color: rgba(59, 130, 246, 0.5); --tw-ring-offset-shadow: 0 0 #0000; --tw-ring-shadow: 0 0 #0000; --tw-shadow: 0 0 #0000; --tw-shadow-colored: 0 0 #0000; border-color: var(--border-color);&quot;&gt;&lt;font style=&quot;--tw-border-spacing-x: 0; --tw-border-spacing-y: 0; --tw-translate-x: 0; --tw-translate-y: 0; --tw-rotate: 0; --tw-skew-x: 0; --tw-skew-y: 0; --tw-scale-x: 1; --tw-scale-y: 1; --tw-scroll-snap-strictness: proximity; --tw-ring-offset-width: 0px; --tw-ring-offset-color: #fff; --tw-ring-color: rgba(59, 130, 246, 0.5); --tw-ring-offset-shadow: 0 0 #0000; --tw-ring-shadow: 0 0 #0000; --tw-shadow: 0 0 #0000; --tw-shadow-colored: 0 0 #0000; border-color: var(--border-color);&quot; face=&quot;宋体&quot;&gt;可以享受团队下领养支付金额的&lt;/font&gt;&lt;font style=&quot;--tw-border-spacing-x: 0; --tw-border-spacing-y: 0; --tw-translate-x: 0; --tw-translate-y: 0; --tw-rotate: 0; --tw-skew-x: 0; --tw-skew-y: 0; --tw-scale-x: 1; --tw-scale-y: 1; --tw-scroll-snap-strictness: proximity; --tw-ring-offset-width: 0px; --tw-ring-offset-color: #fff; --tw-ring-color: rgba(59, 130, 246, 0.5); --tw-ring-offset-shadow: 0 0 #0000; --tw-ring-shadow: 0 0 #0000; --tw-shadow: 0 0 #0000; --tw-shadow-colored: 0 0 #0000; border-color: var(--border-color);&quot; face=&quot;Calibri&quot;&gt;1%&lt;/font&gt;&lt;/span&gt;&lt;span style=&quot;--tw-border-spacing-x: 0; --tw-border-spacing-y: 0; --tw-translate-x: 0; --tw-translate-y: 0; --tw-rotate: 0; --tw-skew-x: 0; --tw-skew-y: 0; --tw-scale-x: 1; --tw-scale-y: 1; --tw-scroll-snap-strictness: proximity; --tw-ring-offset-width: 0px; --tw-ring-offset-color: #fff; --tw-ring-color: rgba(59, 130, 246, 0.5); --tw-ring-offset-shadow: 0 0 #0000; --tw-ring-shadow: 0 0 #0000; --tw-shadow: 0 0 #0000; --tw-shadow-colored: 0 0 #0000; border-color: var(--border-color);&quot;&gt;&lt;/span&gt;&lt;/p&gt;&lt;p style=&quot;--tw-border-spacing-x: 0; --tw-border-spacing-y: 0; --tw-translate-x: 0; --tw-translate-y: 0; --tw-rotate: 0; --tw-skew-x: 0; --tw-skew-y: 0; --tw-scale-x: 1; --tw-scale-y: 1; --tw-scroll-snap-strictness: proximity; --tw-ring-offset-width: 0px; --tw-ring-offset-color: #fff; --tw-ring-color: rgba(59, 130, 246, 0.5); --tw-ring-offset-shadow: 0 0 #0000; --tw-ring-shadow: 0 0 #0000; --tw-shadow: 0 0 #0000; --tw-shadow-colored: 0 0 #0000; border-color: var(--border-color);&quot; class=&quot;MsoNormal&quot;&gt;&lt;span style=&quot;--tw-border-spacing-x: 0; --tw-border-spacing-y: 0; --tw-translate-x: 0; --tw-translate-y: 0; --tw-rotate: 0; --tw-skew-x: 0; --tw-skew-y: 0; --tw-scale-x: 1; --tw-scale-y: 1; --tw-scroll-snap-strictness: proximity; --tw-ring-offset-width: 0px; --tw-ring-offset-color: #fff; --tw-ring-color: rgba(59, 130, 246, 0.5); --tw-ring-offset-shadow: 0 0 #0000; --tw-ring-shadow: 0 0 #0000; --tw-shadow: 0 0 #0000; --tw-shadow-colored: 0 0 #0000; border-color: var(--border-color);&quot;&gt;(2)&amp;nbsp;&lt;/span&gt;&lt;span style=&quot;--tw-border-spacing-x: 0; --tw-border-spacing-y: 0; --tw-translate-x: 0; --tw-translate-y: 0; --tw-rotate: 0; --tw-skew-x: 0; --tw-skew-y: 0; --tw-scale-x: 1; --tw-scale-y: 1; --tw-scroll-snap-strictness: proximity; --tw-ring-offset-width: 0px; --tw-ring-offset-color: #fff; --tw-ring-color: rgba(59, 130, 246, 0.5); --tw-ring-offset-shadow: 0 0 #0000; --tw-ring-shadow: 0 0 #0000; --tw-shadow: 0 0 #0000; --tw-shadow-colored: 0 0 #0000; border-color: var(--border-color);&quot;&gt;&lt;font style=&quot;--tw-border-spacing-x: 0; --tw-border-spacing-y: 0; --tw-translate-x: 0; --tw-translate-y: 0; --tw-rotate: 0; --tw-skew-x: 0; --tw-skew-y: 0; --tw-scale-x: 1; --tw-scale-y: 1; --tw-scroll-snap-strictness: proximity; --tw-ring-offset-width: 0px; --tw-ring-offset-color: #fff; --tw-ring-color: rgba(59, 130, 246, 0.5); --tw-ring-offset-shadow: 0 0 #0000; --tw-ring-shadow: 0 0 #0000; --tw-shadow: 0 0 #0000; --tw-shadow-colored: 0 0 #0000; border-color: var(--border-color);&quot; face=&quot;宋体&quot;&gt;可以享受团队下所有用户每日权益收益的&lt;/font&gt;&lt;font style=&quot;--tw-border-spacing-x: 0; --tw-border-spacing-y: 0; --tw-translate-x: 0; --tw-translate-y: 0; --tw-rotate: 0; --tw-skew-x: 0; --tw-skew-y: 0; --tw-scale-x: 1; --tw-scale-y: 1; --tw-scroll-snap-strictness: proximity; --tw-ring-offset-width: 0px; --tw-ring-offset-color: #fff; --tw-ring-color: rgba(59, 130, 246, 0.5); --tw-ring-offset-shadow: 0 0 #0000; --tw-ring-shadow: 0 0 #0000; --tw-shadow: 0 0 #0000; --tw-shadow-colored: 0 0 #0000; border-color: var(--border-color);&quot; face=&quot;Calibri&quot;&gt;5%&lt;/font&gt;&lt;/span&gt;&lt;span style=&quot;--tw-border-spacing-x: 0; --tw-border-spacing-y: 0; --tw-translate-x: 0; --tw-translate-y: 0; --tw-rotate: 0; --tw-skew-x: 0; --tw-skew-y: 0; --tw-scale-x: 1; --tw-scale-y: 1; --tw-scroll-snap-strictness: proximity; --tw-ring-offset-width: 0px; --tw-ring-offset-color: #fff; --tw-ring-color: rgba(59, 130, 246, 0.5); --tw-ring-offset-shadow: 0 0 #0000; --tw-ring-shadow: 0 0 #0000; --tw-shadow: 0 0 #0000; --tw-shadow-colored: 0 0 #0000; border-color: var(--border-color);&quot;&gt;&lt;/span&gt;&lt;/p&gt;&lt;p style=&quot;--tw-border-spacing-x: 0; --tw-border-spacing-y: 0; --tw-translate-x: 0; --tw-translate-y: 0; --tw-rotate: 0; --tw-skew-x: 0; --tw-skew-y: 0; --tw-scale-x: 1; --tw-scale-y: 1; --tw-scroll-snap-strictness: proximity; --tw-ring-offset-width: 0px; --tw-ring-offset-color: #fff; --tw-ring-color: rgba(59, 130, 246, 0.5); --tw-ring-offset-shadow: 0 0 #0000; --tw-ring-shadow: 0 0 #0000; --tw-shadow: 0 0 #0000; --tw-shadow-colored: 0 0 #0000; border-color: var(--border-color); text-align: left;&quot; class=&quot;MsoNormal&quot;&gt;&lt;span style=&quot;--tw-border-spacing-x: 0; --tw-border-spacing-y: 0; --tw-translate-x: 0; --tw-translate-y: 0; --tw-rotate: 0; --tw-skew-x: 0; --tw-skew-y: 0; --tw-scale-x: 1; --tw-scale-y: 1; --tw-scroll-snap-strictness: proximity; --tw-ring-offset-width: 0px; --tw-ring-offset-color: #fff; --tw-ring-color: rgba(59, 130, 246, 0.5); --tw-ring-offset-shadow: 0 0 #0000; --tw-ring-shadow: 0 0 #0000; --tw-shadow: 0 0 #0000; --tw-shadow-colored: 0 0 #0000; border-color: var(--border-color);&quot;&gt;&lt;font style=&quot;--tw-border-spacing-x: 0; --tw-border-spacing-y: 0; --tw-translate-x: 0; --tw-translate-y: 0; --tw-rotate: 0; --tw-skew-x: 0; --tw-skew-y: 0; --tw-scale-x: 1; --tw-scale-y: 1; --tw-scroll-snap-strictness: proximity; --tw-ring-offset-width: 0px; --tw-ring-offset-color: #fff; --tw-ring-color: rgba(59, 130, 246, 0.5); --tw-ring-offset-shadow: 0 0 #0000; --tw-ring-shadow: 0 0 #0000; --tw-shadow: 0 0 #0000; --tw-shadow-colored: 0 0 #0000; border-color: var(--border-color);&quot; face=&quot;宋体&quot;&gt;省代&lt;/font&gt;&lt;/span&gt;&lt;span style=&quot;--tw-border-spacing-x: 0; --tw-border-spacing-y: 0; --tw-translate-x: 0; --tw-translate-y: 0; --tw-rotate: 0; --tw-skew-x: 0; --tw-skew-y: 0; --tw-scale-x: 1; --tw-scale-y: 1; --tw-scroll-snap-strictness: proximity; --tw-ring-offset-width: 0px; --tw-ring-offset-color: #fff; --tw-ring-color: rgba(59, 130, 246, 0.5); --tw-ring-offset-shadow: 0 0 #0000; --tw-ring-shadow: 0 0 #0000; --tw-shadow: 0 0 #0000; --tw-shadow-colored: 0 0 #0000; border-color: var(--border-color);&quot;&gt;&lt;/span&gt;&lt;/p&gt;&lt;p style=&quot;--tw-border-spacing-x: 0; --tw-border-spacing-y: 0; --tw-translate-x: 0; --tw-translate-y: 0; --tw-rotate: 0; --tw-skew-x: 0; --tw-skew-y: 0; --tw-scale-x: 1; --tw-scale-y: 1; --tw-scroll-snap-strictness: proximity; --tw-ring-offset-width: 0px; --tw-ring-offset-color: #fff; --tw-ring-color: rgba(59, 130, 246, 0.5); --tw-ring-offset-shadow: 0 0 #0000; --tw-ring-shadow: 0 0 #0000; --tw-shadow: 0 0 #0000; --tw-shadow-colored: 0 0 #0000; border-color: var(--border-color); text-align: left;&quot; class=&quot;MsoNormal&quot;&gt;&lt;span style=&quot;--tw-border-spacing-x: 0; --tw-border-spacing-y: 0; --tw-translate-x: 0; --tw-translate-y: 0; --tw-rotate: 0; --tw-skew-x: 0; --tw-skew-y: 0; --tw-scale-x: 1; --tw-scale-y: 1; --tw-scroll-snap-strictness: proximity; --tw-ring-offset-width: 0px; --tw-ring-offset-color: #fff; --tw-ring-color: rgba(59, 130, 246, 0.5); --tw-ring-offset-shadow: 0 0 #0000; --tw-ring-shadow: 0 0 #0000; --tw-shadow: 0 0 #0000; --tw-shadow-colored: 0 0 #0000; border-color: var(--border-color);&quot;&gt;&lt;font style=&quot;--tw-border-spacing-x: 0; --tw-border-spacing-y: 0; --tw-translate-x: 0; --tw-translate-y: 0; --tw-rotate: 0; --tw-skew-x: 0; --tw-skew-y: 0; --tw-scale-x: 1; --tw-scale-y: 1; --tw-scroll-snap-strictness: proximity; --tw-ring-offset-width: 0px; --tw-ring-offset-color: #fff; --tw-ring-color: rgba(59, 130, 246, 0.5); --tw-ring-offset-shadow: 0 0 #0000; --tw-ring-shadow: 0 0 #0000; --tw-shadow: 0 0 #0000; --tw-shadow-colored: 0 0 #0000; border-color: var(--border-color);&quot; face=&quot;Calibri&quot;&gt;1.&lt;/font&gt;&lt;font style=&quot;--tw-border-spacing-x: 0; --tw-border-spacing-y: 0; --tw-translate-x: 0; --tw-translate-y: 0; --tw-rotate: 0; --tw-skew-x: 0; --tw-skew-y: 0; --tw-scale-x: 1; --tw-scale-y: 1; --tw-scroll-snap-strictness: proximity; --tw-ring-offset-width: 0px; --tw-ring-offset-color: #fff; --tw-ring-color: rgba(59, 130, 246, 0.5); --tw-ring-offset-shadow: 0 0 #0000; --tw-ring-shadow: 0 0 #0000; --tw-shadow: 0 0 #0000; --tw-shadow-colored: 0 0 #0000; border-color: var(--border-color);&quot; face=&quot;宋体&quot;&gt;可以享受团队下领养支付金额的&lt;/font&gt;&lt;font style=&quot;--tw-border-spacing-x: 0; --tw-border-spacing-y: 0; --tw-translate-x: 0; --tw-translate-y: 0; --tw-rotate: 0; --tw-skew-x: 0; --tw-skew-y: 0; --tw-scale-x: 1; --tw-scale-y: 1; --tw-scroll-snap-strictness: proximity; --tw-ring-offset-width: 0px; --tw-ring-offset-color: #fff; --tw-ring-color: rgba(59, 130, 246, 0.5); --tw-ring-offset-shadow: 0 0 #0000; --tw-ring-shadow: 0 0 #0000; --tw-shadow: 0 0 #0000; --tw-shadow-colored: 0 0 #0000; border-color: var(--border-color);&quot; face=&quot;Calibri&quot;&gt;1%&lt;/font&gt;&lt;/span&gt;&lt;span style=&quot;--tw-border-spacing-x: 0; --tw-border-spacing-y: 0; --tw-translate-x: 0; --tw-translate-y: 0; --tw-rotate: 0; --tw-skew-x: 0; --tw-skew-y: 0; --tw-scale-x: 1; --tw-scale-y: 1; --tw-scroll-snap-strictness: proximity; --tw-ring-offset-width: 0px; --tw-ring-offset-color: #fff; --tw-ring-color: rgba(59, 130, 246, 0.5); --tw-ring-offset-shadow: 0 0 #0000; --tw-ring-shadow: 0 0 #0000; --tw-shadow: 0 0 #0000; --tw-shadow-colored: 0 0 #0000; border-color: var(--border-color);&quot;&gt;&lt;/span&gt;&lt;/p&gt;&lt;p style=&quot;--tw-border-spacing-x: 0; --tw-border-spacing-y: 0; --tw-translate-x: 0; --tw-translate-y: 0; --tw-rotate: 0; --tw-skew-x: 0; --tw-skew-y: 0; --tw-scale-x: 1; --tw-scale-y: 1; --tw-scroll-snap-strictness: proximity; --tw-ring-offset-width: 0px; --tw-ring-offset-color: #fff; --tw-ring-color: rgba(59, 130, 246, 0.5); --tw-ring-offset-shadow: 0 0 #0000; --tw-ring-shadow: 0 0 #0000; --tw-shadow: 0 0 #0000; --tw-shadow-colored: 0 0 #0000; border-color: var(--border-color); text-align: left;&quot; class=&quot;MsoNormal&quot;&gt;&lt;span style=&quot;--tw-border-spacing-x: 0; --tw-border-spacing-y: 0; --tw-translate-x: 0; --tw-translate-y: 0; --tw-rotate: 0; --tw-skew-x: 0; --tw-skew-y: 0; --tw-scale-x: 1; --tw-scale-y: 1; --tw-scroll-snap-strictness: proximity; --tw-ring-offset-width: 0px; --tw-ring-offset-color: #fff; --tw-ring-color: rgba(59, 130, 246, 0.5); --tw-ring-offset-shadow: 0 0 #0000; --tw-ring-shadow: 0 0 #0000; --tw-shadow: 0 0 #0000; --tw-shadow-colored: 0 0 #0000; border-color: var(--border-color);&quot;&gt;&lt;font style=&quot;--tw-border-spacing-x: 0; --tw-border-spacing-y: 0; --tw-translate-x: 0; --tw-translate-y: 0; --tw-rotate: 0; --tw-skew-x: 0; --tw-skew-y: 0; --tw-scale-x: 1; --tw-scale-y: 1; --tw-scroll-snap-strictness: proximity; --tw-ring-offset-width: 0px; --tw-ring-offset-color: #fff; --tw-ring-color: rgba(59, 130, 246, 0.5); --tw-ring-offset-shadow: 0 0 #0000; --tw-ring-shadow: 0 0 #0000; --tw-shadow: 0 0 #0000; --tw-shadow-colored: 0 0 #0000; border-color: var(--border-color);&quot; face=&quot;Calibri&quot;&gt;2.&lt;/font&gt;&lt;font style=&quot;--tw-border-spacing-x: 0; --tw-border-spacing-y: 0; --tw-translate-x: 0; --tw-translate-y: 0; --tw-rotate: 0; --tw-skew-x: 0; --tw-skew-y: 0; --tw-scale-x: 1; --tw-scale-y: 1; --tw-scroll-snap-strictness: proximity; --tw-ring-offset-width: 0px; --tw-ring-offset-color: #fff; --tw-ring-color: rgba(59, 130, 246, 0.5); --tw-ring-offset-shadow: 0 0 #0000; --tw-ring-shadow: 0 0 #0000; --tw-shadow: 0 0 #0000; --tw-shadow-colored: 0 0 #0000; border-color: var(--border-color);&quot; face=&quot;宋体&quot;&gt;可以享受团队下所有用户每日权益收益的&lt;/font&gt;&lt;font style=&quot;--tw-border-spacing-x: 0; --tw-border-spacing-y: 0; --tw-translate-x: 0; --tw-translate-y: 0; --tw-rotate: 0; --tw-skew-x: 0; --tw-skew-y: 0; --tw-scale-x: 1; --tw-scale-y: 1; --tw-scroll-snap-strictness: proximity; --tw-ring-offset-width: 0px; --tw-ring-offset-color: #fff; --tw-ring-color: rgba(59, 130, 246, 0.5); --tw-ring-offset-shadow: 0 0 #0000; --tw-ring-shadow: 0 0 #0000; --tw-shadow: 0 0 #0000; --tw-shadow-colored: 0 0 #0000; border-color: var(--border-color);&quot; face=&quot;Calibri&quot;&gt;3%&lt;/font&gt;&lt;/span&gt;&lt;span style=&quot;--tw-border-spacing-x: 0; --tw-border-spacing-y: 0; --tw-translate-x: 0; --tw-translate-y: 0; --tw-rotate: 0; --tw-skew-x: 0; --tw-skew-y: 0; --tw-scale-x: 1; --tw-scale-y: 1; --tw-scroll-snap-strictness: proximity; --tw-ring-offset-width: 0px; --tw-ring-offset-color: #fff; --tw-ring-color: rgba(59, 130, 246, 0.5); --tw-ring-offset-shadow: 0 0 #0000; --tw-ring-shadow: 0 0 #0000; --tw-shadow: 0 0 #0000; --tw-shadow-colored: 0 0 #0000; border-color: var(--border-color);&quot;&gt;&lt;/span&gt;&lt;/p&gt;&lt;p style=&quot;--tw-border-spacing-x: 0; --tw-border-spacing-y: 0; --tw-translate-x: 0; --tw-translate-y: 0; --tw-rotate: 0; --tw-skew-x: 0; --tw-skew-y: 0; --tw-scale-x: 1; --tw-scale-y: 1; --tw-scroll-snap-strictness: proximity; --tw-ring-offset-width: 0px; --tw-ring-offset-color: #fff; --tw-ring-color: rgba(59, 130, 246, 0.5); --tw-ring-offset-shadow: 0 0 #0000; --tw-ring-shadow: 0 0 #0000; --tw-shadow: 0 0 #0000; --tw-shadow-colored: 0 0 #0000; border-color: var(--border-color); text-align: left;&quot; class=&quot;MsoNormal&quot;&gt;&lt;span style=&quot;--tw-border-spacing-x: 0; --tw-border-spacing-y: 0; --tw-translate-x: 0; --tw-translate-y: 0; --tw-rotate: 0; --tw-skew-x: 0; --tw-skew-y: 0; --tw-scale-x: 1; --tw-scale-y: 1; --tw-scroll-snap-strictness: proximity; --tw-ring-offset-width: 0px; --tw-ring-offset-color: #fff; --tw-ring-color: rgba(59, 130, 246, 0.5); --tw-ring-offset-shadow: 0 0 #0000; --tw-ring-shadow: 0 0 #0000; --tw-shadow: 0 0 #0000; --tw-shadow-colored: 0 0 #0000; border-color: var(--border-color);&quot;&gt;&lt;font style=&quot;--tw-border-spacing-x: 0; --tw-border-spacing-y: 0; --tw-translate-x: 0; --tw-translate-y: 0; --tw-rotate: 0; --tw-skew-x: 0; --tw-skew-y: 0; --tw-scale-x: 1; --tw-scale-y: 1; --tw-scroll-snap-strictness: proximity; --tw-ring-offset-width: 0px; --tw-ring-offset-color: #fff; --tw-ring-color: rgba(59, 130, 246, 0.5); --tw-ring-offset-shadow: 0 0 #0000; --tw-ring-shadow: 0 0 #0000; --tw-shadow: 0 0 #0000; --tw-shadow-colored: 0 0 #0000; border-color: var(--border-color);&quot; face=&quot;宋体&quot;&gt;总代&lt;/font&gt;&lt;/span&gt;&lt;span style=&quot;--tw-border-spacing-x: 0; --tw-border-spacing-y: 0; --tw-translate-x: 0; --tw-translate-y: 0; --tw-rotate: 0; --tw-skew-x: 0; --tw-skew-y: 0; --tw-scale-x: 1; --tw-scale-y: 1; --tw-scroll-snap-strictness: proximity; --tw-ring-offset-width: 0px; --tw-ring-offset-color: #fff; --tw-ring-color: rgba(59, 130, 246, 0.5); --tw-ring-offset-shadow: 0 0 #0000; --tw-ring-shadow: 0 0 #0000; --tw-shadow: 0 0 #0000; --tw-shadow-colored: 0 0 #0000; border-color: var(--border-color);&quot;&gt;&lt;/span&gt;&lt;/p&gt;&lt;p style=&quot;--tw-border-spacing-x: 0; --tw-border-spacing-y: 0; --tw-translate-x: 0; --tw-translate-y: 0; --tw-rotate: 0; --tw-skew-x: 0; --tw-skew-y: 0; --tw-scale-x: 1; --tw-scale-y: 1; --tw-scroll-snap-strictness: proximity; --tw-ring-offset-width: 0px; --tw-ring-offset-color: #fff; --tw-ring-color: rgba(59, 130, 246, 0.5); --tw-ring-offset-shadow: 0 0 #0000; --tw-ring-shadow: 0 0 #0000; --tw-shadow: 0 0 #0000; --tw-shadow-colored: 0 0 #0000; border-color: var(--border-color); text-align: left;&quot; class=&quot;MsoNormal&quot;&gt;&lt;span style=&quot;--tw-border-spacing-x: 0; --tw-border-spacing-y: 0; --tw-translate-x: 0; --tw-translate-y: 0; --tw-rotate: 0; --tw-skew-x: 0; --tw-skew-y: 0; --tw-scale-x: 1; --tw-scale-y: 1; --tw-scroll-snap-strictness: proximity; --tw-ring-offset-width: 0px; --tw-ring-offset-color: #fff; --tw-ring-color: rgba(59, 130, 246, 0.5); --tw-ring-offset-shadow: 0 0 #0000; --tw-ring-shadow: 0 0 #0000; --tw-shadow: 0 0 #0000; --tw-shadow-colored: 0 0 #0000; border-color: var(--border-color);&quot;&gt;&lt;font style=&quot;--tw-border-spacing-x: 0; --tw-border-spacing-y: 0; --tw-translate-x: 0; --tw-translate-y: 0; --tw-rotate: 0; --tw-skew-x: 0; --tw-skew-y: 0; --tw-scale-x: 1; --tw-scale-y: 1; --tw-scroll-snap-strictness: proximity; --tw-ring-offset-width: 0px; --tw-ring-offset-color: #fff; --tw-ring-color: rgba(59, 130, 246, 0.5); --tw-ring-offset-shadow: 0 0 #0000; --tw-ring-shadow: 0 0 #0000; --tw-shadow: 0 0 #0000; --tw-shadow-colored: 0 0 #0000; border-color: var(--border-color);&quot; face=&quot;Calibri&quot;&gt;1.&lt;/font&gt;&lt;font style=&quot;--tw-border-spacing-x: 0; --tw-border-spacing-y: 0; --tw-translate-x: 0; --tw-translate-y: 0; --tw-rotate: 0; --tw-skew-x: 0; --tw-skew-y: 0; --tw-scale-x: 1; --tw-scale-y: 1; --tw-scroll-snap-strictness: proximity; --tw-ring-offset-width: 0px; --tw-ring-offset-color: #fff; --tw-ring-color: rgba(59, 130, 246, 0.5); --tw-ring-offset-shadow: 0 0 #0000; --tw-ring-shadow: 0 0 #0000; --tw-shadow: 0 0 #0000; --tw-shadow-colored: 0 0 #0000; border-color: var(--border-color);&quot; face=&quot;宋体&quot;&gt;可以享受团队下领养支付金额的&lt;/font&gt;&lt;font style=&quot;--tw-border-spacing-x: 0; --tw-border-spacing-y: 0; --tw-translate-x: 0; --tw-translate-y: 0; --tw-rotate: 0; --tw-skew-x: 0; --tw-skew-y: 0; --tw-scale-x: 1; --tw-scale-y: 1; --tw-scroll-snap-strictness: proximity; --tw-ring-offset-width: 0px; --tw-ring-offset-color: #fff; --tw-ring-color: rgba(59, 130, 246, 0.5); --tw-ring-offset-shadow: 0 0 #0000; --tw-ring-shadow: 0 0 #0000; --tw-shadow: 0 0 #0000; --tw-shadow-colored: 0 0 #0000; border-color: var(--border-color);&quot; face=&quot;Calibri&quot;&gt;1%&lt;/font&gt;&lt;/span&gt;&lt;span style=&quot;--tw-border-spacing-x: 0; --tw-border-spacing-y: 0; --tw-translate-x: 0; --tw-translate-y: 0; --tw-rotate: 0; --tw-skew-x: 0; --tw-skew-y: 0; --tw-scale-x: 1; --tw-scale-y: 1; --tw-scroll-snap-strictness: proximity; --tw-ring-offset-width: 0px; --tw-ring-offset-color: #fff; --tw-ring-color: rgba(59, 130, 246, 0.5); --tw-ring-offset-shadow: 0 0 #0000; --tw-ring-shadow: 0 0 #0000; --tw-shadow: 0 0 #0000; --tw-shadow-colored: 0 0 #0000; border-color: var(--border-color);&quot;&gt;&lt;/span&gt;&lt;/p&gt;&lt;p style=&quot;--tw-border-spacing-x: 0; --tw-border-spacing-y: 0; --tw-translate-x: 0; --tw-translate-y: 0; --tw-rotate: 0; --tw-skew-x: 0; --tw-skew-y: 0; --tw-scale-x: 1; --tw-scale-y: 1; --tw-scroll-snap-strictness: proximity; --tw-ring-offset-width: 0px; --tw-ring-offset-color: #fff; --tw-ring-color: rgba(59, 130, 246, 0.5); --tw-ring-offset-shadow: 0 0 #0000; --tw-ring-shadow: 0 0 #0000; --tw-shadow: 0 0 #0000; --tw-shadow-colored: 0 0 #0000; border-color: var(--border-color); text-align: left;&quot; class=&quot;MsoNormal&quot;&gt;&lt;span style=&quot;--tw-border-spacing-x: 0; --tw-border-spacing-y: 0; --tw-translate-x: 0; --tw-translate-y: 0; --tw-rotate: 0; --tw-skew-x: 0; --tw-skew-y: 0; --tw-scale-x: 1; --tw-scale-y: 1; --tw-scroll-snap-strictness: proximity; --tw-ring-offset-width: 0px; --tw-ring-offset-color: #fff; --tw-ring-color: rgba(59, 130, 246, 0.5); --tw-ring-offset-shadow: 0 0 #0000; --tw-ring-shadow: 0 0 #0000; --tw-shadow: 0 0 #0000; --tw-shadow-colored: 0 0 #0000; border-color: var(--border-color);&quot;&gt;&lt;font style=&quot;--tw-border-spacing-x: 0; --tw-border-spacing-y: 0; --tw-translate-x: 0; --tw-translate-y: 0; --tw-rotate: 0; --tw-skew-x: 0; --tw-skew-y: 0; --tw-scale-x: 1; --tw-scale-y: 1; --tw-scroll-snap-strictness: proximity; --tw-ring-offset-width: 0px; --tw-ring-offset-color: #fff; --tw-ring-color: rgba(59, 130, 246, 0.5); --tw-ring-offset-shadow: 0 0 #0000; --tw-ring-shadow: 0 0 #0000; --tw-shadow: 0 0 #0000; --tw-shadow-colored: 0 0 #0000; border-color: var(--border-color);&quot; face=&quot;Calibri&quot;&gt;2.&lt;/font&gt;&lt;font style=&quot;--tw-border-spacing-x: 0; --tw-border-spacing-y: 0; --tw-translate-x: 0; --tw-translate-y: 0; --tw-rotate: 0; --tw-skew-x: 0; --tw-skew-y: 0; --tw-scale-x: 1; --tw-scale-y: 1; --tw-scroll-snap-strictness: proximity; --tw-ring-offset-width: 0px; --tw-ring-offset-color: #fff; --tw-ring-color: rgba(59, 130, 246, 0.5); --tw-ring-offset-shadow: 0 0 #0000; --tw-ring-shadow: 0 0 #0000; --tw-shadow: 0 0 #0000; --tw-shadow-colored: 0 0 #0000; border-color: var(--border-color);&quot; face=&quot;宋体&quot;&gt;可以享受团队下所有用户每日权益收益的&lt;/font&gt;&lt;font style=&quot;--tw-border-spacing-x: 0; --tw-border-spacing-y: 0; --tw-translate-x: 0; --tw-translate-y: 0; --tw-rotate: 0; --tw-skew-x: 0; --tw-skew-y: 0; --tw-scale-x: 1; --tw-scale-y: 1; --tw-scroll-snap-strictness: proximity; --tw-ring-offset-width: 0px; --tw-ring-offset-color: #fff; --tw-ring-color: rgba(59, 130, 246, 0.5); --tw-ring-offset-shadow: 0 0 #0000; --tw-ring-shadow: 0 0 #0000; --tw-shadow: 0 0 #0000; --tw-shadow-colored: 0 0 #0000; border-color: var(--border-color);&quot; face=&quot;Calibri&quot;&gt;2%&lt;/font&gt;&lt;/span&gt;&lt;/p&gt;" style="whiteSpace=wrap;html=1;fillColor=#2EE3FF;rounded=1;" vertex="1" parent="WIyWlLk6GJQsqaUBKTNV-1">
          <mxGeometry x="1140" y="500" width="200" height="300" as="geometry" />
        </mxCell>
        <mxCell id="mll0LeE3y_oYJCZJaChD-42" value="" style="edgeStyle=orthogonalEdgeStyle;rounded=0;orthogonalLoop=1;jettySize=auto;html=1;" edge="1" parent="WIyWlLk6GJQsqaUBKTNV-1" source="mll0LeE3y_oYJCZJaChD-39" target="mll0LeE3y_oYJCZJaChD-41">
          <mxGeometry relative="1" as="geometry" />
        </mxCell>
        <mxCell id="mll0LeE3y_oYJCZJaChD-39" value="符合分支人数达标" style="rhombus;whiteSpace=wrap;html=1;fillColor=#2EE3FF;rounded=1;" vertex="1" parent="WIyWlLk6GJQsqaUBKTNV-1">
          <mxGeometry x="990" y="410" width="140" height="80" as="geometry" />
        </mxCell>
        <mxCell id="mll0LeE3y_oYJCZJaChD-43" style="edgeStyle=orthogonalEdgeStyle;rounded=0;orthogonalLoop=1;jettySize=auto;html=1;" edge="1" parent="WIyWlLk6GJQsqaUBKTNV-1" source="mll0LeE3y_oYJCZJaChD-41" target="mll0LeE3y_oYJCZJaChD-26">
          <mxGeometry relative="1" as="geometry" />
        </mxCell>
        <mxCell id="mll0LeE3y_oYJCZJaChD-41" value="去除分支大区的 剩余小区和达标金额" style="rhombus;whiteSpace=wrap;html=1;fillColor=#2EE3FF;rounded=1;" vertex="1" parent="WIyWlLk6GJQsqaUBKTNV-1">
          <mxGeometry x="970" y="522.5" width="170" height="107.5" as="geometry" />
        </mxCell>
      </root>
    </mxGraphModel>
  </diagram>
</mxfile>
